<?xml version="1.0" encoding="UTF-8"?>
<svg xmlns="http://www.w3.org/2000/svg" xmlns:xlink="http://www.w3.org/1999/xlink" width="148px" height="150px" viewBox="0 0 148 149" version="1.1">
<g id="surface1">
<path style=" stroke:none;fill-rule:nonzero;fill:rgb(10.196078%,9.803922%,9.411765%);fill-opacity:1;" d="M 73.871094 0 C 34.929688 0 3.03125 30.152344 0 68.46875 L 39.730469 84.964844 C 43.097656 82.648438 47.167969 81.300781 51.539062 81.300781 C 51.933594 81.300781 52.324219 81.3125 52.707031 81.332031 L 70.378906 55.613281 L 70.378906 55.25 C 70.378906 39.773438 82.917969 27.179688 98.332031 27.179688 C 113.746094 27.179688 126.285156 39.773438 126.285156 55.25 C 126.285156 70.730469 113.746094 83.328125 98.332031 83.328125 C 98.117188 83.328125 97.910156 83.324219 97.699219 83.316406 L 72.496094 101.367188 C 72.511719 101.703125 72.523438 102.039062 72.523438 102.367188 C 72.523438 113.992188 63.109375 123.441406 51.539062 123.441406 C 41.382812 123.441406 32.886719 116.160156 30.96875 106.523438 L 2.550781 94.722656 C 11.351562 125.96875 39.9375 148.878906 73.871094 148.878906 C 114.8125 148.878906 148 115.546875 148 74.4375 C 148 33.324219 114.8125 0 73.871094 0 Z M 46.453125 112.949219 L 37.347656 109.167969 C 38.960938 112.542969 41.753906 115.367188 45.460938 116.917969 C 53.472656 120.273438 62.710938 116.457031 66.050781 108.40625 C 67.664062 104.507812 67.675781 100.210938 66.078125 96.304688 C 64.476562 92.398438 61.453125 89.351562 57.574219 87.726562 C 53.71875 86.117188 49.589844 86.175781 45.960938 87.550781 L 55.371094 91.457031 C 61.28125 93.929688 64.074219 100.746094 61.613281 106.679688 C 59.152344 112.613281 52.363281 115.421875 46.453125 112.949219 Z M 116.960938 55.253906 C 116.960938 44.941406 108.601562 36.542969 98.335938 36.542969 C 88.0625 36.542969 79.703125 44.941406 79.703125 55.253906 C 79.703125 65.566406 88.0625 73.957031 98.335938 73.957031 C 108.601562 73.957031 116.960938 65.566406 116.960938 55.253906 Z M 84.371094 55.21875 C 84.371094 47.460938 90.636719 41.171875 98.359375 41.171875 C 106.089844 41.171875 112.355469 47.460938 112.355469 55.21875 C 112.355469 62.980469 106.089844 69.269531 98.359375 69.269531 C 90.636719 69.269531 84.371094 62.980469 84.371094 55.21875 Z M 84.371094 55.21875 "/>
</g>
</svg>
