<?xml version="1.0" encoding="UTF-8"?>
<svg xmlns="http://www.w3.org/2000/svg" xmlns:xlink="http://www.w3.org/1999/xlink" width="264px" height="150px" viewBox="0 0 263 150" version="1.1">
<g id="surface1">
<path style=" stroke:none;fill-rule:nonzero;fill:rgb(99.607843%,99.607843%,99.215686%);fill-opacity:1;" d="M 0 0 C 86.789062 0 173.578125 0 263 0 C 263 49.5 263 99 263 150 C 176.210938 150 89.421875 150 0 150 C 0 100.5 0 51 0 0 Z M 0 0 "/>
<path style=" stroke:none;fill-rule:nonzero;fill:rgb(85.882353%,74.117647%,17.647059%);fill-opacity:1;" d="M 93.503906 40.476562 C 96.289062 43.269531 96.289062 43.269531 97.457031 48.136719 C 96.109375 54.167969 96.109375 54.167969 91.707031 57.0625 C 89.429688 58.285156 87.121094 59.453125 84.792969 60.578125 C 83.433594 61.257812 82.078125 61.9375 80.675781 62.640625 C 68.460938 68.535156 55.847656 73.257812 43.113281 77.882812 C 44.761719 78.410156 46.410156 78.933594 48.105469 79.472656 C 69.53125 86.519531 69.53125 86.519531 77.605469 95.191406 C 79.339844 96.710938 79.339844 96.710938 81.109375 98.257812 C 83.355469 100.960938 83.355469 100.960938 83.355469 106.730469 C 78.183594 110.191406 74.941406 110.464844 68.984375 109.617188 C 62.664062 107.957031 56.492188 105.925781 50.300781 103.847656 C 48.582031 103.304688 48.582031 103.304688 46.824219 102.753906 C 7.519531 90.25 7.519531 90.25 0 77.882812 C -0.71875 73.558594 -0.71875 73.558594 0 69.230469 C 2.964844 65.804688 2.964844 65.804688 7.1875 63.460938 C 9.492188 63.507812 11.796875 63.570312 14.097656 63.710938 C 20.046875 63.242188 25.386719 60.542969 30.863281 58.296875 C 35.828125 56.289062 40.832031 54.546875 45.898438 52.824219 C 53.1875 50.277344 59.785156 47.179688 66.558594 43.539062 C 76.375 38.472656 82.796875 36.746094 93.503906 40.476562 Z M 93.503906 40.476562 "/>
<path style=" stroke:none;fill-rule:nonzero;fill:rgb(85.882353%,74.117647%,17.254902%);fill-opacity:1;" d="M 196.605469 43.167969 C 198.121094 43.675781 199.640625 44.1875 201.203125 44.710938 C 202.347656 45.070312 203.496094 45.433594 204.675781 45.804688 C 244.449219 58.457031 244.449219 58.457031 251.503906 70.671875 C 251.324219 75.902344 251.324219 75.902344 250.066406 80.769531 C 245.875 83.574219 243.984375 84.195312 239.191406 85 C 231.605469 86.421875 224.414062 88.503906 217.101562 90.957031 C 215.808594 91.382812 214.519531 91.8125 213.191406 92.25 C 202.726562 95.84375 192.847656 100.3125 183.082031 105.511719 C 175.753906 109.277344 170.648438 110.414062 162.398438 109.617188 C 158.085938 107.363281 158.085938 107.363281 155.214844 103.847656 C 155.097656 100.484375 155.089844 97.113281 155.214844 93.75 C 167.53125 86.789062 179.742188 80.316406 193.117188 75.632812 C 194.152344 75.269531 195.183594 74.90625 196.246094 74.535156 C 200.464844 73.117188 203.910156 72.117188 208.386719 72.117188 C 208.386719 71.164062 208.386719 70.210938 208.386719 69.230469 C 206.609375 68.933594 204.832031 68.636719 203 68.328125 C 189.691406 65.296875 178.523438 59.332031 169.601562 48.9375 C 168.148438 46.152344 168.148438 46.152344 168.445312 43.011719 C 172.671875 33.273438 189.703125 40.910156 196.605469 43.167969 Z M 196.605469 43.167969 "/>
<path style=" stroke:none;fill-rule:nonzero;fill:rgb(85.882353%,74.117647%,17.254902%);fill-opacity:1;" d="M 167.699219 0.992188 C 171.023438 1.441406 171.023438 1.441406 172.460938 2.882812 C 173.824219 12.011719 174.796875 20.765625 169.808594 28.773438 C 166.703125 32.070312 163.5 35.199219 160.191406 38.289062 C 156.433594 42.035156 153.300781 46.261719 150.09375 50.480469 C 148.765625 52.203125 147.433594 53.925781 146.101562 55.648438 C 145.460938 56.480469 144.816406 57.3125 144.15625 58.167969 C 141.367188 61.75 138.503906 65.265625 135.632812 68.78125 C 134.605469 70.050781 133.578125 71.320312 132.523438 72.628906 C 130.320312 75.273438 128.042969 77.855469 125.71875 80.390625 C 118.390625 88.59375 115.375 93.652344 115.167969 104.714844 C 114.972656 108.171875 114.972656 108.171875 112.816406 112.859375 C 107.976562 116.261719 104.886719 115.636719 99.199219 114.792969 C 96.289062 113.941406 96.289062 113.941406 93.414062 111.058594 C 92.117188 100.730469 91.917969 90.398438 97.6875 81.46875 C 102.632812 75.386719 107.96875 69.664062 113.425781 64.042969 C 118.457031 58.847656 122.542969 53.710938 126.46875 47.597656 C 130.070312 43.160156 133.773438 38.820312 137.480469 34.472656 C 140.449219 30.777344 142.75 27.144531 145.152344 23.078125 C 147.234375 20.367188 149.363281 17.691406 151.53125 15.054688 C 152.625 13.714844 153.71875 12.375 154.847656 10.992188 C 162.941406 1.546875 162.941406 1.546875 167.699219 0.992188 Z M 167.699219 0.992188 "/>
</g>
</svg>
